<?xml version="1.0" encoding="UTF-8"?>
<svg version="1.1" xmlns="http://www.w3.org/2000/svg" width="1254" height="1254">
<path d="M0 0 C413.82 0 827.64 0 1254 0 C1254 413.82 1254 827.64 1254 1254 C840.18 1254 426.36 1254 0 1254 C0 840.18 0 426.36 0 0 Z " fill="#000000" transform="translate(0,0)"/>
<path d="M0 0 C1.35253829 0.10654569 2.70733369 0.18491483 4.0625 0.25 C37.65270036 3.39605623 71.39423219 25.11763561 92.72070312 50.44482422 C116.87381111 79.80652229 128.3991825 117.07999794 125 155 C118.44341753 195.58994855 99.12337634 231.57097266 65.94140625 256.27734375 C54.11282997 264.74700975 41.74041609 271.18529894 28 276 C27.27039063 276.27328125 26.54078125 276.5465625 25.7890625 276.828125 C20.7896022 278.62869691 15.66024516 279.88187035 10.5 281.125 C9.7997168 281.29588135 9.09943359 281.4667627 8.37792969 281.64282227 C-25.35400905 289.52591507 -61.07352909 282.55235735 -91 266 C-92.12019531 265.38382813 -93.24039063 264.76765625 -94.39453125 264.1328125 C-103.12446942 259.04474696 -110.5817972 252.80177046 -118 246 C-118.84691406 245.22527344 -119.69382812 244.45054687 -120.56640625 243.65234375 C-144.94686751 220.28950175 -160.06772775 184.37818597 -161.3125 150.72265625 C-161.50365289 140.34257242 -161.19033691 130.17567945 -159 120 C-158.73963192 118.61872528 -158.48061605 117.23719526 -158.22265625 115.85546875 C-150.97298558 78.7004006 -128.34666825 44.16345309 -96.9140625 22.8515625 C-74.28147081 8.47106859 -26.81068458 -13.40534229 0 0 Z " fill="#FCFBFB" transform="translate(929,461)"/>
<path d="M0 0 C2.16780437 1.76758969 4.30297793 3.56673908 6.4375 5.375 C7.20578125 5.99117188 7.9740625 6.60734375 8.765625 7.2421875 C18.45189609 15.21238694 25.25146146 25.58836072 31.4375 36.375 C31.82550781 37.04789062 32.21351563 37.72078125 32.61328125 38.4140625 C35.00888872 42.88980649 36.7937834 47.64769216 38.625 52.375 C38.88748535 53.03991455 39.1499707 53.7048291 39.42041016 54.38989258 C41.18444704 59.07421128 41.89782165 63.40341767 42.4375 68.375 C42.7675 68.705 43.0975 69.035 43.4375 69.375 C46.49213386 85.32455253 44.99710156 102.63900242 41.4375 118.375 C41.28764648 119.04885742 41.13779297 119.72271484 40.98339844 120.41699219 C39.04454787 128.90100709 36.38766147 136.63353074 32.4375 144.375 C31.88449219 145.51324219 31.33148437 146.65148437 30.76171875 147.82421875 C23.1028232 163.21126582 12.3444809 176.09592595 0.4375 188.375 C-0.305 189.14585937 -1.0475 189.91671875 -1.8125 190.7109375 C-5.43132511 194.40044279 -9.1976865 197.84152591 -13.11328125 201.2109375 C-16.40549009 204.11984291 -19.60680467 207.12136792 -22.8125 210.125 C-30.9066131 217.70595035 -39.04243168 225.23560451 -47.3125 232.625 C-52.51685416 237.29039192 -57.60171142 242.08068358 -62.67871094 246.88378906 C-65.91226485 249.93312251 -69.17379776 252.93099342 -72.53125 255.84375 C-76.77747937 259.53140109 -80.85972169 263.37802396 -84.9375 267.25 C-94.9066113 276.66140638 -94.9066113 276.66140638 -99.4375 280.8125 C-100.17742187 281.49183594 -100.91734375 282.17117188 -101.6796875 282.87109375 C-103.5625 284.375 -103.5625 284.375 -106.5625 285.375 C-106.5625 286.035 -106.5625 286.695 -106.5625 287.375 C-57.0625 287.375 -7.5625 287.375 43.4375 287.375 C43.4375 307.505 43.4375 327.635 43.4375 348.375 C-37.4125 348.375 -118.2625 348.375 -201.5625 348.375 C-201.5625 328.575 -201.5625 308.775 -201.5625 288.375 C-198.9225 286.065 -196.2825 283.755 -193.5625 281.375 C-191.49109323 279.48749125 -189.4274117 277.59523673 -187.375 275.6875 C-186.24352976 274.63927954 -185.11201819 273.59110371 -183.98046875 272.54296875 C-183.41247559 272.01622559 -182.84448242 271.48948242 -182.25927734 270.94677734 C-180.62964044 269.43719426 -178.99716435 267.93076633 -177.36328125 266.42578125 C-168.41317368 258.18164426 -159.51738103 249.87993169 -150.63037109 241.56787109 C-141.37679392 232.91326124 -132.07546158 224.31617894 -122.71484375 215.77734375 C-114.94544386 208.67717885 -107.26461381 201.48560761 -99.59277344 194.28027344 C-91.79995637 186.96724501 -83.98553974 179.67769444 -76.125 172.4375 C-69.21482774 166.06479746 -62.32012 159.67666003 -55.49951172 153.20800781 C-54.24751163 152.02323132 -52.9915809 150.84258864 -51.73095703 149.66699219 C-35.11509034 134.13547114 -24.02432469 115.58256538 -23.21875 92.33837891 C-23.01031676 78.40917633 -27.10133104 66.82686728 -36.5625 56.375 C-41.94840698 51.29734842 -47.66968505 47.10772664 -54.5625 44.375 C-55.42488281 44.00375 -56.28726563 43.6325 -57.17578125 43.25 C-72.92999474 37.36515761 -91.70381641 38.84371856 -106.85913086 45.6315918 C-120.22571563 51.98022874 -129.33027318 61.81571321 -134.8125 75.5625 C-137.19869937 82.63881538 -138.34525538 90.02542451 -139.5625 97.375 C-169.33543557 93.52012634 -169.33543557 93.52012634 -181.58886719 91.38623047 C-188.55451351 90.17824694 -195.54821469 89.25437205 -202.5625 88.375 C-202.06760664 58.27648572 -188.97672393 31.3471949 -168.3125 9.8125 C-154.47652555 -3.57100713 -137.82905828 -13.56937427 -119.5625 -19.625 C-118.75167969 -19.90730469 -117.94085937 -20.18960937 -117.10546875 -20.48046875 C-114.60803977 -21.29637838 -112.10978504 -21.98090078 -109.5625 -22.625 C-107.93054688 -23.04458984 -107.93054688 -23.04458984 -106.265625 -23.47265625 C-70.54127768 -31.44022334 -28.83945304 -22.77884724 0 0 Z " fill="#FBFBFB" transform="translate(706.5625,391.625)"/>
<path d="M0 0 C75.9 0 151.8 0 230 0 C230 19.47 230 38.94 230 59 C223.73 65.27 217.46 71.54 211 78 C207.535 81.96 207.535 81.96 204 86 C202.51935245 87.51910593 201.02255252 89.02289681 199.5 90.5 C196.83730372 93.12707492 194.2873525 95.76729011 191.875 98.625 C187.68953877 103.51786313 183.05925114 107.96558993 178.48779297 112.49267578 C174.64991722 116.3075645 170.96269784 120.17680664 167.46875 124.3125 C165.35233626 126.7441243 163.04479524 128.96491158 160.74609375 131.22265625 C158.93522357 133.06593574 157.24678646 134.97822799 155.5625 136.9375 C153.14382221 139.74576347 150.64100317 142.39970593 148 145 C145.40017817 147.55990134 142.93731602 150.1677954 140.5625 152.9375 C137.99334729 155.92801716 135.30682744 158.73116684 132.5 161.5 C129.21635513 164.74514317 126.14110377 168.07651076 123.13671875 171.578125 C120.1997939 174.90699777 117.16157627 178.1371325 114.125 181.375 C110.23106792 185.52842599 106.35188172 189.68792771 102.5625 193.9375 C97.80391405 199.27397874 92.88706075 204.46067907 87.96313477 209.64428711 C87.33592529 210.30823486 86.70871582 210.97218262 86.0625 211.65625 C85.49660156 212.25244141 84.93070312 212.84863281 84.34765625 213.46289062 C82.90668067 214.97548996 82.90668067 214.97548996 82 217 C130.84 217 179.68 217 230 217 C230 236.47 230 255.94 230 276 C153.77 276 77.54 276 -1 276 C-1 256.53 -1 237.06 -1 217 C3.62 212.38 8.24 207.76 13 203 C15.77214789 199.88222441 15.77214789 199.88222441 18.49609375 196.72265625 C20.62838211 194.28021686 22.94586296 192.04428572 25.2578125 189.7734375 C27.04715827 187.95199585 28.71288532 186.06285721 30.375 184.125 C32.96634205 181.1153247 35.67254783 178.28911384 38.5 175.5 C41.9288279 172.11758601 45.12048518 168.61929558 48.25390625 164.96484375 C50.09615675 162.89179676 52.02401662 160.94564198 54 159 C56.47963329 156.55336563 58.85440376 154.07892226 61.125 151.4375 C64.56295855 147.4422468 68.1468486 143.5955461 71.75 139.75 C79.33095035 131.6558869 86.86060451 123.52006832 94.25 115.25 C98.9131378 110.05009813 103.7032055 104.97255967 108.48901367 99.88598633 C112.59289677 95.51830058 116.63227004 91.10214119 120.62109375 86.62890625 C124.31610822 82.54558156 128.08979455 78.53581779 131.86547852 74.52709961 C136.02199775 70.09915366 139.9942753 65.57797109 144 61 C96.48 60.67 48.96 60.34 0 60 C0 40.2 0 20.4 0 0 Z " fill="#FBFAFA" transform="translate(229,464)"/>
<path d="M0 0 C15.22650553 12.53551781 25.23897909 30.58738973 27.65234375 50.18359375 C29.52871908 72.42500551 24.82661139 94.71740785 10.875 112.59375 C3.67421829 120.98411603 -3.66657105 127.79468199 -13.34765625 133.18359375 C-14.25902344 133.71726562 -15.17039062 134.2509375 -16.109375 134.80078125 C-33.72156446 144.45985378 -55.79626836 146.4000784 -75.09765625 141.05859375 C-82.00512905 138.94745253 -88.31286999 136.19149891 -94.34765625 132.18359375 C-95.31960938 131.54808594 -96.2915625 130.91257812 -97.29296875 130.2578125 C-115.01510894 117.8613794 -126.11134094 99.22386493 -129.92578125 77.9609375 C-132.71469275 52.98985029 -127.94520024 30.74979411 -112.45703125 10.69921875 C-103.07641532 -0.48803433 -91.35879287 -10.04973091 -77.34765625 -14.81640625 C-76.09855469 -15.26113281 -76.09855469 -15.26113281 -74.82421875 -15.71484375 C-48.18376428 -23.49985591 -21.38541571 -16.66432525 0 0 Z " fill="#010101" transform="translate(962.34765625,540.81640625)"/>
<path d="M0 0 C7.26 0 14.52 0 22 0 C22.33 13.86 22.66 27.72 23 42 C25.64 39.69 28.28 37.38 31 35 C43.05047419 28.9747629 56.07705934 27.79960358 69 32.0625 C75.30503797 34.4335683 80.11771603 37.39556959 85 42 C85.63421875 42.556875 86.2684375 43.11375 86.921875 43.6875 C91.43254841 47.85119853 94.4603632 52.42497537 97 58 C97.53238281 59.13695312 98.06476563 60.27390625 98.61328125 61.4453125 C100.75170572 67.28412329 100.47440446 73.29458436 100.4375 79.4375 C100.45748047 80.61376953 100.47746094 81.79003906 100.49804688 83.00195312 C100.49397899 90.27939112 99.63671196 95.67539071 96 102 C95.44699219 103.00289062 94.89398437 104.00578125 94.32421875 105.0390625 C86.58595362 117.26515204 76.23496233 126.2321925 61.75 129.5 C48.63607044 131.32985064 36.89637241 129.49576398 26.03125 121.5625 C24.65148969 120.41703861 23.31903159 119.21489752 22 118 C22 121.3 22 124.6 22 128 C14.74 128 7.48 128 0 128 C0 85.76 0 43.52 0 0 Z " fill="#00D5F6" transform="translate(639,789)"/>
<path d="M0 0 C1.69044656 1.30305256 3.36871556 2.62360375 5 4 C5 0.37 5 -3.26 5 -7 C12.26 -7 19.52 -7 27 -7 C27 25.01 27 57.02 27 90 C19.74 90 12.48 90 5 90 C4.67 86.7 4.34 83.4 4 80 C3.46632813 80.45890625 2.93265625 80.9178125 2.3828125 81.390625 C-9.08580499 90.83536882 -20.43388642 92.8117813 -35 92 C-38.29631786 91.45145245 -41.00254923 90.46204329 -44 89 C-44.94359375 88.54753906 -45.8871875 88.09507812 -46.859375 87.62890625 C-59.01618326 81.19567142 -68.53692279 70.72545271 -72.8046875 57.5078125 C-74.31002936 51.0534015 -74.26466953 44.59112497 -74 38 C-73.97035156 37.04609375 -73.94070313 36.0921875 -73.91015625 35.109375 C-73.1748271 22.2680171 -66.37299674 11.61049308 -57.1953125 2.8515625 C-40.87110568 -10.91654076 -17.45367826 -12.61618429 0 0 Z " fill="#00D4F5" transform="translate(556,827)"/>
<path d="M0 0 C4.85306389 3.11982679 9.00967151 6.78805585 13.0078125 10.93359375 C11.49703801 15.3249116 8.09118974 17.25096167 4.3828125 19.68359375 C3.77179688 20.09480469 3.16078125 20.50601563 2.53125 20.9296875 C1.02885922 21.93910631 -0.48095659 22.93745845 -1.9921875 23.93359375 C-4.08245799 22.92384683 -6.07611293 21.88084062 -8.04296875 20.64453125 C-15.20458171 16.41435572 -22.83705464 15.34916794 -30.9921875 16.93359375 C-33.99269701 19.10494019 -33.99269701 19.10494019 -35.9921875 21.93359375 C-36.40568519 25.53941154 -36.40568519 25.53941154 -34.9921875 28.93359375 C-30.6579542 32.4644714 -27.09708558 33.54163033 -21.6171875 34.30859375 C-9.10915119 36.36136691 3.60657412 39.8121018 12.0078125 49.93359375 C16.39275943 56.44457555 15.73612211 64.33489677 15.0078125 71.93359375 C12.81637356 80.26341811 7.64850872 86.21089244 0.4609375 90.7578125 C-7.34610188 94.4997215 -14.30359526 95.43080867 -22.9296875 95.37109375 C-23.94998047 95.39107422 -24.97027344 95.41105469 -26.02148438 95.43164062 C-37.61507165 95.42424204 -47.83783504 91.01981685 -56.109375 82.83984375 C-60.9921875 77.42756965 -60.9921875 77.42756965 -60.9921875 74.93359375 C-58.9453125 73.3125 -58.9453125 73.3125 -56.2421875 71.49609375 C-52.47208371 68.96202146 -52.47208371 68.96202146 -48.9140625 66.1484375 C-46.9921875 64.93359375 -46.9921875 64.93359375 -44.95703125 65.0625 C-42.73178122 66.04904226 -41.32158757 67.2021281 -39.5546875 68.87109375 C-34.3295599 73.80526297 -29.3917388 74.27588456 -22.4921875 74.24609375 C-21.37263672 74.27026367 -21.37263672 74.27026367 -20.23046875 74.29492188 C-15.66482512 74.29896227 -12.70722587 73.86990292 -8.9921875 70.93359375 C-7.46726752 67.88375379 -7.75656202 65.29125685 -7.9921875 61.93359375 C-10.26570979 58.80559329 -12.99414844 58.06466097 -16.6171875 56.99609375 C-17.77089844 56.65449219 -18.92460938 56.31289063 -20.11328125 55.9609375 C-23.54149463 55.01775815 -26.99753517 54.27128927 -30.47485352 53.53417969 C-40.3819229 51.39721023 -48.5653129 48.94270262 -54.5546875 40.18359375 C-59.16477816 32.50446256 -59.34378701 23.0614537 -57.4140625 14.3125 C-54.12763093 6.88815232 -46.84158383 1.53835305 -39.8046875 -2.06640625 C-27.36203298 -6.73439316 -11.82015832 -5.93856147 0 0 Z " fill="#01D5F6" transform="translate(845.9921875,823.06640625)"/>
<path d="M0 0 C7.59 0 15.18 0 23 0 C23 42.24 23 84.48 23 128 C15.41 128 7.82 128 0 128 C0 85.76 0 43.52 0 0 Z " fill="#00D1F1" transform="translate(407,789)"/>
<path d="M0 0 C6.37927347 4.372702 10.7406428 9.52433884 13 17 C14.3052809 26.40264291 12.7672775 34.32410181 7.52734375 42.21875 C2.3419397 48.78938019 -3.53671928 52.45219291 -11.8828125 53.4765625 C-19.82900012 53.91084178 -26.73810353 53.34520647 -33 48 C-38.95924055 42.40369944 -43.03746493 36.2778016 -44 28 C-44.08765625 27.30390625 -44.1753125 26.6078125 -44.265625 25.890625 C-44.80586415 18.179939 -42.22388576 12.36721633 -38 6 C-28.29215187 -5.10028695 -12.77763784 -8.31286477 0 0 Z " fill="#000404" transform="translate(548,844)"/>
<path d="M0 0 C5.38869924 4.08673164 10.25650342 9.34202245 12 16 C13.1332359 25.76235509 12.37259694 35.39935456 6.1640625 43.3515625 C0.36207726 49.46476534 -5.38585713 52.59733044 -13.83203125 53.203125 C-22.81340706 53.34437862 -29.63364332 52.21597149 -36.32421875 45.89453125 C-43.3201064 37.9854275 -45.12394711 30.32368122 -44.5078125 20.03515625 C-43.71426804 12.23921601 -40.66715585 7.05934044 -34.6875 2.0625 C-23.81663285 -5.53098875 -11.87827139 -6.4070676 0 0 Z " fill="#000304" transform="translate(705,844)"/>
<path d="M0 0 C1.65 0 3.3 0 5 0 C4.51322375 0.39124967 4.02644751 0.78249933 3.52492046 1.18560505 C1.51616733 3.57567825 1.6170652 4.93180874 1.60127258 8.03031921 C1.58873444 9.06938416 1.57619629 10.1084491 1.5632782 11.17900085 C1.56471329 12.31835587 1.56614838 13.45771088 1.56762695 14.6315918 C1.5574353 15.83171906 1.54724365 17.03184631 1.53674316 18.26834106 C1.51170472 21.55951068 1.49988331 24.8502338 1.49388909 28.14146018 C1.484516 31.58085226 1.45831354 35.02011473 1.43388367 38.45942688 C1.3901855 44.9722977 1.36165901 51.48514342 1.33856028 57.99811631 C1.31152631 65.41287132 1.26761376 72.82749616 1.22227156 80.24215829 C1.12937782 95.49470767 1.05831757 110.74727707 1 126 C7.6 126 14.2 126 21 126 C21 126.33 21 126.66 21 127 C14.07 127 7.14 127 0 127 C0 85.09 0 43.18 0 0 Z " fill="#01E9F7" transform="translate(639,789)"/>
<path d="M0 0 C0 3.10551666 -0.5393715 4.35261084 -2 7 C-2.66 7 -3.32 7 -4 7 C-4 7.66 -4 8.32 -4 9 C-5.75 10.7265625 -5.75 10.7265625 -8 12.625 C-8.7425 13.25664063 -9.485 13.88828125 -10.25 14.5390625 C-10.8275 15.02117188 -11.405 15.50328125 -12 16 C-12.66 15.67 -13.32 15.34 -14 15 C-13.40832031 14.41992188 -12.81664062 13.83984375 -12.20703125 13.2421875 C-7.90148281 8.98580519 -3.76799131 4.74037617 0 0 Z " fill="#1C1C1D" transform="translate(719,566)"/>
<path d="M0 0 C0.66 0.33 1.32 0.66 2 1 C1.401875 1.556875 0.80375 2.11375 0.1875 2.6875 C-2.0720622 4.90165118 -2.0720622 4.90165118 -3.5 7.5625 C-5.06325168 10.10278399 -6.52712323 11.37983936 -9 13 C-9.66 12.67 -10.32 12.34 -11 12 C-7.37 8.04 -3.74 4.08 0 0 Z " fill="#E2E1E2" transform="translate(371,527)"/>
<path d="M0 0 C3.45281166 1.15093722 4.38082163 2.3205993 6.6875 5.0625 C7.31011719 5.79597656 7.93273437 6.52945313 8.57421875 7.28515625 C9.04472656 7.85105469 9.51523437 8.41695312 10 9 C9.34 9.66 8.68 10.32 8 11 C6.84501103 9.92643323 5.70132133 8.84070212 4.5625 7.75 C3.92441406 7.14671875 3.28632812 6.5434375 2.62890625 5.921875 C0.91483694 3.89951984 0.40641122 2.58729395 0 0 Z " fill="#01C5DF" transform="translate(785,898)"/>
<path d="M0 0 C0.66 0.33 1.32 0.66 2 1 C1.360625 1.103125 0.72125 1.20625 0.0625 1.3125 C-0.618125 1.539375 -1.29875 1.76625 -2 2 C-2.33 2.99 -2.66 3.98 -3 5 C-6.00906864 6.24513185 -7.9409326 5.84653438 -11 5 C-9.21289414 4.13633178 -7.4201535 3.28431406 -5.625 2.4375 C-4.62726562 1.96183594 -3.62953125 1.48617187 -2.6015625 0.99609375 C-1.74304688 0.66738281 -0.88453125 0.33867188 0 0 Z " fill="#383838" transform="translate(885,526)"/>
<path d="M0 0 C0 3.67718093 -0.82184858 5.07076189 -3 8 C-5.6875 9.3125 -5.6875 9.3125 -8 10 C-7.04367001 8.70684939 -6.08486149 7.41553147 -5.125 6.125 C-4.59132813 5.40570312 -4.05765625 4.68640625 -3.5078125 3.9453125 C-2 2 -2 2 0 0 Z " fill="#E1E0E1" transform="translate(359,540)"/>
<path d="M0 0 C0.33 1.32 0.66 2.64 1 4 C0.34 4 -0.32 4 -1 4 C-1.33 4.99 -1.66 5.98 -2 7 C-4.0625 8.6875 -4.0625 8.6875 -6 10 C-6.66 9.67 -7.32 9.34 -8 9 C-5.36 6.03 -2.72 3.06 0 0 Z " fill="#E3E3E4" transform="translate(312,591)"/>
<path d="M0 0 C0.66 0.33 1.32 0.66 2 1 C-0.475 4.465 -0.475 4.465 -3 8 C-4.32 7.67 -5.64 7.34 -7 7 C-4.69 4.69 -2.38 2.38 0 0 Z " fill="#D6D5D6" transform="translate(341,560)"/>
<path d="M0 0 C1.98 0.99 1.98 0.99 4 2 C4 2.99 4 3.98 4 5 C2.68 5.33 1.36 5.66 0 6 C0 4.02 0 2.04 0 0 Z " fill="#001B20" transform="translate(661,907)"/>
<path d="M0 0 C0.99 0.66 1.98 1.32 3 2 C1.9024777 4.99324263 1.32317108 5.84610901 -1.625 7.25 C-2.40875 7.4975 -3.1925 7.745 -4 8 C-4 7.34 -4 6.68 -4 6 C-3.01 5.34 -2.02 4.68 -1 4 C-0.27617533 1.94074861 -0.27617533 1.94074861 0 0 Z " fill="#00B3D4" transform="translate(856,832)"/>
<path d="M0 0 C1.8871875 0.061875 1.8871875 0.061875 3.8125 0.125 C3.4825 0.785 3.1525 1.445 2.8125 2.125 C-0.83403273 3.23921833 -3.52041043 3.06796589 -7.1875 2.125 C-4.09861478 0.06574319 -3.47814073 -0.1140374 0 0 Z " fill="#1B1B1B" transform="translate(902.1875,522.875)"/>
<path d="M0 0 C1.5625 1.5625 1.5625 1.5625 3 4 C2.6875 7.75 2.6875 7.75 2 11 C-0.32590854 7.36576791 -0.16265833 4.22911669 0 0 Z " fill="#202020" transform="translate(568,476)"/>
<path d="M0 0 C0.33 0.99 0.66 1.98 1 3 C-0.40445835 5.2636564 -2.1967913 7.0208685 -4 9 C-4.66 8.67 -5.32 8.34 -6 8 C-4.02 5.36 -2.04 2.72 0 0 Z " fill="#D0CFD1" transform="translate(532,408)"/>
<path d="M0 0 C0.99 0.33 1.98 0.66 3 1 C2.6875 2.9375 2.6875 2.9375 2 5 C1.01 5.33 0.02 5.66 -1 6 C-0.67 4.02 -0.34 2.04 0 0 Z " fill="#05C9E7" transform="translate(789,838)"/>
</svg>
